<svg xmlns="http://www.w3.org/2000/svg" width="1387" height="756" viewBox="0 0 1387 756">
<g>
<path d="M 562.00 514.94 C554.90,516.08 513.74,516.41 512.67,515.33 C512.30,514.97 512.00,497.64 512.00,476.83 L 512.00 439.00 L 535.32 439.00 C560.70,439.00 566.42,439.86 572.75,444.65 C581.48,451.24 582.09,464.75 574.00,472.50 L 571.03 475.34 L 573.90 477.09 C575.48,478.05 578.05,480.51 579.61,482.55 C583.65,487.86 584.20,497.55 580.80,503.89 C577.83,509.45 570.94,513.50 562.00,514.94 ZM 615.78 504.75 L 615.50 515.50 L 606.95 515.79 C602.25,515.94 598.09,515.76 597.70,515.37 C597.32,514.98 597.00,497.61 597.00,476.77 L 597.00 438.86 L 619.75 439.25 C633.87,439.50 643.91,440.10 646.22,440.86 C665.96,447.32 670.47,474.68 653.82,486.95 L 649.14 490.39 L 657.48 502.62 C662.07,509.34 665.57,515.10 665.25,515.42 C664.01,516.66 647.15,516.01 645.82,514.68 C645.09,513.95 641.63,509.00 638.12,503.68 L 631.74 494.00 L 616.07 494.00 ZM 860.04 514.12 C846.69,519.21 825.74,516.78 813.81,508.75 L 811.11 506.94 L 813.98 500.88 C815.55,497.55 817.07,494.60 817.35,494.32 C817.62,494.04 821.29,495.52 825.49,497.59 C832.00,500.81 834.34,501.43 841.39,501.80 C847.78,502.13 850.38,501.86 852.87,500.57 C857.34,498.26 858.78,494.83 856.64,491.58 C854.42,488.18 853.00,487.54 840.94,484.49 C819.51,479.08 813.00,473.66 813.00,461.24 C813.00,451.36 820.45,442.67 831.73,439.39 C839.70,437.07 857.32,437.88 865.23,440.92 C868.38,442.14 871.24,443.58 871.58,444.13 C872.26,445.23 868.25,456.73 866.90,457.56 C866.44,457.85 865.03,457.41 863.78,456.59 C860.81,454.65 850.55,452.00 846.04,452.01 C837.61,452.02 831.00,455.72 831.00,460.43 C831.00,463.85 834.83,466.48 842.74,468.49 C858.64,472.54 864.40,474.51 868.06,477.16 C881.58,486.95 877.09,507.63 860.04,514.12 ZM 652.51 308.25 C650.35,311.96 648.33,314.98 648.04,314.96 C646.91,314.88 642.00,311.91 642.00,311.31 C642.00,310.66 643.54,307.96 660.93,278.11 C666.50,268.55 670.83,260.49 670.55,260.22 C670.27,259.94 665.56,262.02 660.09,264.85 C654.62,267.68 649.55,270.00 648.82,269.99 C648.10,269.99 646.79,268.73 645.91,267.20 L 644.33 264.41 L 655.56 258.49 C666.71,252.62 666.79,252.55 667.28,248.54 C667.56,246.32 668.05,243.82 668.37,243.00 C668.78,241.99 663.52,235.84 652.22,224.09 C636.56,207.82 635.32,206.76 633.23,207.88 C631.16,208.98 631.00,209.77 631.00,218.54 L 631.00 228.00 L 624.00 228.00 L 624.00 209.34 L 620.33 206.92 C612.47,201.74 610.01,193.82 613.90,186.19 C617.72,178.72 628.58,175.62 635.71,179.96 C641.51,183.50 644.42,192.12 641.99,198.54 C641.02,201.07 641.81,202.08 657.63,218.62 C671.90,233.55 674.59,235.93 676.39,235.27 C677.55,234.85 680.84,234.50 683.69,234.50 C688.27,234.50 689.32,234.91 692.47,237.97 C699.01,244.31 699.58,252.99 693.90,259.46 C690.49,263.34 685.16,265.48 680.98,264.65 C678.21,264.09 677.86,264.54 668.39,280.76 C663.03,289.94 658.15,298.36 657.55,299.47 C656.94,300.59 654.67,304.54 652.51,308.25 ZM 714.03 454.00 L 713.50 515.50 L 704.75 515.79 C699.94,515.95 695.91,515.72 695.80,515.29 C695.56,514.38 695.52,511.43 695.22,478.28 L 695.00 454.06 L 671.50 453.50 L 670.91 439.00 L 738.00 439.00 L 738.00 454.00 ZM 805.00 501.04 L 805.00 516.00 L 777.67 516.00 C762.63,516.00 750.03,515.70 749.67,515.33 C749.30,514.97 749.00,497.64 749.00,476.83 L 749.00 439.00 L 766.97 439.00 L 767.50 500.50 ZM 719.00 219.00 C719.00,219.64 710.20,220.00 694.60,220.00 L 670.20 220.00 L 651.16 199.98 L 650.83 192.99 C650.65,189.14 650.57,186.00 650.66,186.00 C650.75,186.00 657.17,189.15 664.93,193.00 C672.69,196.85 679.26,200.00 679.53,200.00 C679.79,200.00 688.36,204.05 698.55,209.00 C708.75,213.95 717.53,218.00 718.05,218.00 C718.57,218.00 719.00,218.45 719.00,219.00 ZM 752.13 275.89 C753.74,284.90 754.92,292.41 754.75,292.58 C754.19,293.14 722.04,275.51 722.27,274.77 C722.40,274.37 727.87,267.96 734.43,260.51 C742.29,251.60 746.62,247.39 747.12,248.19 C747.53,248.86 748.17,251.68 748.53,254.45 C748.90,257.23 750.52,266.87 752.13,275.89 ZM 616.00 454.00 L 616.00 479.00 L 625.25 478.98 C636.85,478.95 642.33,476.84 644.54,471.56 C646.39,467.12 646.38,464.61 644.48,460.61 C641.93,455.22 638.61,454.00 626.60,454.00 ZM 530.75 501.42 C531.16,501.84 537.43,502.03 544.68,501.84 C556.19,501.54 558.21,501.23 560.68,499.40 C564.76,496.36 565.76,492.81 563.73,488.57 C561.55,483.99 557.77,483.01 542.25,483.01 L 530.00 483.00 L 530.00 491.83 C530.00,496.69 530.34,501.01 530.75,501.42 ZM 530.74 469.41 C531.15,469.82 536.75,470.01 543.18,469.83 C557.30,469.43 560.30,467.98 560.80,461.26 C561.05,457.88 560.67,456.88 558.42,455.11 C556.00,453.21 554.45,453.00 542.87,453.00 L 530.00 453.00 L 530.00 460.83 C530.00,465.14 530.34,469.00 530.74,469.41 ZM 745.89 232.10 C746.57,238.75 746.97,244.36 746.77,244.57 C746.57,244.77 740.81,239.32 733.97,232.47 L 721.53 220.00 L 744.64 220.00 Z" fill="rgb(6,62,104)"/>
<path d="M 752.13 275.89 C750.52,266.87 748.90,257.23 748.53,254.45 C748.17,251.68 747.53,248.86 747.12,248.19 C746.67,247.47 743.18,250.75 736.84,257.80 C738.99,255.34 740.92,253.10 742.18,251.60 L 747.17 245.69 L 739.23 237.67 C743.53,241.87 746.62,244.71 746.77,244.57 C746.97,244.36 746.57,238.75 745.89,232.10 L 744.64 220.00 L 721.74 220.00 L 721.24 219.50 L 730.87 201.81 C736.75,191.02 740.62,184.86 740.81,186.01 C740.99,187.05 741.89,195.01 742.81,203.70 L 744.50 219.50 L 761.73 220.00 L 778.96 220.50 L 763.48 232.73 C754.96,239.46 748.00,245.31 748.01,245.73 C748.02,246.15 749.53,247.40 751.37,248.50 C761.76,254.71 780.00,266.53 780.00,267.04 C780.00,267.38 773.81,273.69 766.24,281.07 C760.94,286.24 757.65,289.44 754.72,291.87 C754.50,289.77 753.46,283.34 752.13,275.89 ZM 719.00 219.00 C719.00,218.45 718.57,218.00 718.05,218.00 C717.53,218.00 708.75,213.95 698.55,209.00 C688.36,204.05 679.79,200.00 679.53,200.00 C679.26,200.00 672.69,196.85 664.93,193.00 C657.17,189.15 650.75,186.00 650.66,186.00 C650.61,186.00 650.61,187.11 650.67,188.83 C650.48,187.50 650.23,186.44 649.96,185.93 C648.96,184.05 649.48,184.00 669.78,184.00 L 690.63 184.00 L 701.11 196.25 C715.91,213.53 720.00,218.53 720.00,219.31 C720.00,219.69 708.80,220.00 695.10,220.00 C710.39,219.99 719.00,219.63 719.00,219.00 ZM 729.48 266.17 C725.33,270.96 722.37,274.48 722.27,274.77 C722.06,275.46 749.38,290.49 754.08,292.40 C749.78,295.85 746.02,297.81 737.35,302.26 C724.37,308.93 722.13,309.79 721.57,308.33 C721.22,307.40 720.98,299.63 721.05,291.07 L 721.18 275.50 L 729.19 266.50 ZM 629.24 280.77 C623.75,283.65 618.79,286.00 618.22,286.00 C617.65,286.00 617.42,285.10 617.71,283.99 C618.00,282.89 617.73,281.38 617.11,280.63 C615.62,278.84 616.31,278.32 627.73,272.62 L 636.96 268.00 L 638.59 270.49 C639.49,271.86 640.00,273.56 639.73,274.27 C639.46,274.97 634.74,277.90 629.24,280.77 ZM 651.00 196.54 L 651.16 199.98 L 651.00 199.80 Z" fill="rgb(11,97,142)"/>
<path d="M 762.50 384.41 L 742.50 402.94 L 698.00 402.87 C673.53,402.83 652.38,402.44 651.00,402.00 C649.62,401.56 649.05,401.15 649.72,401.10 C650.41,401.04 650.70,400.25 650.37,399.25 C649.94,397.89 650.03,397.81 650.80,398.88 C651.59,400.00 658.41,397.06 685.96,383.72 C707.20,373.44 719.45,367.00 718.32,366.70 C716.70,366.28 716.72,366.22 718.50,366.12 C719.70,366.06 721.14,367.11 722.09,368.76 C727.63,378.27 741.37,401.57 741.66,401.92 C742.51,402.96 742.89,400.33 744.45,382.50 C745.36,372.05 746.53,359.36 747.05,354.29 C747.14,353.44 747.22,352.64 747.30,351.89 C747.95,345.68 748.27,342.70 747.38,342.29 C746.56,341.90 744.73,343.68 741.22,347.09 C740.76,347.54 740.27,348.02 739.75,348.52 L 731.50 356.50 L 747.35 340.10 L 754.93 345.53 C759.09,348.52 767.07,354.01 772.67,357.73 C778.26,361.45 782.76,364.81 782.67,365.19 C782.57,365.57 773.50,374.22 762.50,384.41 ZM 753.91 336.36 C751.39,337.81 749.10,339.00 748.84,339.00 C748.23,339.00 748.66,335.04 750.55,323.50 C752.50,311.54 754.93,293.59 754.63,293.30 C754.56,293.23 752.23,294.36 748.65,296.19 C750.62,295.00 752.30,293.82 754.08,292.40 C754.47,292.56 754.71,292.62 754.75,292.58 C754.78,292.55 754.77,292.30 754.72,291.87 C757.65,289.44 760.94,286.24 766.24,281.07 C768.97,278.41 771.52,275.89 773.66,273.74 C772.02,275.51 770.14,277.51 768.13,279.61 C761.46,286.59 756.00,292.65 756.00,293.08 C756.00,293.51 761.96,299.33 769.25,306.02 C776.54,312.72 782.66,318.88 782.85,319.71 C783.06,320.65 782.75,320.96 782.05,320.53 C781.43,320.15 775.87,322.96 769.71,326.78 C763.54,330.60 756.44,334.91 753.91,336.36 ZM 729.48 266.17 L 729.19 266.50 L 721.18 275.50 L 721.05 291.07 C720.98,299.63 721.22,307.40 721.57,308.33 C721.59,308.38 721.62,308.43 721.64,308.48 C721.22,307.93 721.02,308.19 721.02,309.26 C721.00,310.82 720.33,310.69 715.25,308.16 C712.09,306.58 704.62,303.12 698.65,300.47 L 687.81 295.66 L 693.00 292.58 C708.59,283.34 718.47,276.80 718.23,275.88 C718.07,275.32 718.36,275.11 718.87,275.42 C719.57,275.85 727.04,268.57 734.36,260.59 C732.63,262.55 730.98,264.44 729.48,266.17 ZM 779.77 266.80 C778.77,265.96 774.63,263.18 769.52,259.87 C775.04,263.38 779.66,266.35 779.88,266.56 C779.90,266.58 779.86,266.66 779.77,266.80 ZM 750.30 247.82 C750.45,247.92 750.60,248.01 750.76,248.10 C751.38,248.46 752.74,249.30 754.54,250.42 C753.43,249.74 752.36,249.09 751.37,248.50 C750.99,248.28 750.63,248.05 750.30,247.82 ZM 722.14 308.89 C721.97,308.87 721.86,308.81 721.80,308.71 C721.79,308.69 721.78,308.68 721.77,308.66 C721.86,308.77 721.99,308.84 722.14,308.89 Z" fill="rgb(95,199,205)"/>
<path d="M 633.73 407.04 C628.75,409.30 627.72,409.35 622.74,407.57 C617.80,405.81 616.27,404.44 613.82,399.64 C612.35,396.76 611.92,394.44 612.27,391.33 C612.84,386.27 616.97,380.30 620.52,379.41 C623.48,378.66 624.24,375.42 623.81,365.53 C623.54,359.46 623.21,358.41 621.26,357.44 C613.18,353.43 609.86,344.31 613.60,336.44 C614.47,334.59 615.04,332.69 614.85,332.22 C614.66,331.76 611.12,326.17 607.00,319.82 C599.53,308.32 599.48,308.27 596.00,308.70 C591.69,309.22 584.52,305.74 581.56,301.68 C578.69,297.75 578.71,289.21 581.59,285.32 C585.13,280.55 589.79,278.00 594.95,278.00 L 599.61 278.00 L 607.37 265.81 L 615.13 253.62 L 613.43 249.85 C610.03,242.29 613.73,232.01 620.94,229.03 L 624.00 227.76 L 624.00 228.00 L 631.00 228.00 L 631.00 218.54 C631.00,216.12 631.01,214.31 631.07,212.94 C631.02,214.27 631.01,216.00 631.01,218.29 L 631.02 227.50 L 635.09 229.83 C637.84,231.40 639.79,233.52 641.06,236.33 C643.53,241.76 643.48,245.32 640.88,250.52 L 638.77 254.75 L 641.48 259.38 C642.97,261.92 644.42,264.00 644.71,264.00 C644.89,264.00 647.00,262.96 650.03,261.40 L 644.33 264.41 L 645.91 267.20 C646.79,268.73 648.10,269.99 648.82,269.99 C649.40,270.00 652.74,268.53 656.83,266.50 L 648.12 271.09 L 652.29 278.02 C654.58,281.83 656.76,284.62 657.14,284.22 C657.49,283.85 659.83,279.95 662.49,275.41 C661.98,276.29 661.46,277.19 660.93,278.11 C657.42,284.13 654.56,289.04 652.23,293.06 L 647.62 285.28 C645.09,281.00 642.60,276.85 642.08,276.06 C641.44,275.08 639.28,275.73 631.24,279.71 C635.84,277.21 639.49,274.88 639.73,274.27 C640.00,273.56 639.49,271.86 638.59,270.49 L 636.96 268.00 L 627.73 272.62 C627.09,272.93 626.49,273.23 625.92,273.52 C632.29,270.28 637.00,267.74 637.00,267.53 C637.00,267.29 635.83,265.15 634.41,262.79 C631.87,258.59 631.70,258.50 626.47,258.50 L 621.12 258.50 L 614.06 269.41 C610.18,275.40 607.00,280.92 607.00,281.66 C607.00,282.52 612.45,280.28 622.00,275.50 C622.45,275.27 622.90,275.05 623.35,274.82 C616.16,278.50 615.84,279.10 617.11,280.63 C617.73,281.38 618.00,282.89 617.71,283.99 C617.42,285.10 617.65,286.00 618.22,286.00 C618.49,286.00 619.76,285.47 621.61,284.59 C613.75,288.64 609.85,290.88 609.85,293.12 C609.85,295.65 614.86,298.18 624.75,303.32 C632.86,307.53 640.09,310.87 640.82,310.74 C641.49,310.62 643.99,307.16 646.55,302.86 C642.54,309.83 642.00,310.92 642.00,311.31 C642.00,311.91 646.91,314.88 648.04,314.96 C648.25,314.98 649.36,313.41 650.77,311.14 C649.74,313.00 649.00,314.52 649.00,314.96 C649.00,315.43 653.39,318.09 658.75,320.87 C664.11,323.65 669.11,325.95 669.85,325.97 C671.18,326.00 670.33,324.28 661.15,308.25 C659.18,304.81 657.24,302.00 656.83,302.00 C656.50,302.00 655.15,303.92 653.65,306.28 C655.42,303.23 657.05,300.39 657.55,299.47 C658.15,298.36 663.03,289.94 668.39,280.76 C669.28,279.25 670.08,277.87 670.82,276.61 C670.44,277.26 670.04,277.95 669.62,278.67 C661.94,291.85 661.25,293.46 662.43,295.38 C663.15,296.55 666.80,302.67 670.55,309.00 C674.30,315.33 677.84,320.83 678.43,321.23 C679.02,321.64 681.30,321.98 683.50,321.99 C688.97,322.01 693.71,325.14 696.04,330.27 C698.50,335.70 698.48,338.38 695.93,343.65 C693.06,349.57 688.36,352.34 682.23,351.70 C679.63,351.43 676.79,351.05 675.92,350.86 C674.93,350.63 668.08,356.94 657.59,367.73 L 640.83 384.96 L 642.02 388.55 C644.36,395.65 640.66,403.89 633.73,407.04 ZM 762.50 384.41 C773.50,374.22 782.57,365.57 782.67,365.19 C782.76,364.81 778.26,361.45 772.67,357.73 C767.07,354.01 759.09,348.52 754.93,345.53 L 747.35 340.10 L 731.50 356.50 L 739.75 348.52 C740.27,348.02 740.76,347.54 741.22,347.09 C744.73,343.68 746.56,341.90 747.38,342.29 C748.27,342.70 747.95,345.68 747.30,351.89 C747.22,352.64 747.14,353.44 747.05,354.29 C746.53,359.36 745.36,372.05 744.45,382.50 C742.89,400.33 742.51,402.96 741.66,401.92 C741.37,401.57 727.63,378.27 722.09,368.76 C721.51,367.74 720.73,366.95 719.95,366.51 L 720.97 366.50 L 733.99 353.51 C741.14,346.37 747.00,340.24 747.00,339.89 C747.00,339.54 741.30,332.90 734.33,325.13 L 721.67 311.00 L 681.25 311.00 L 676.13 302.42 C673.31,297.71 671.00,293.47 671.00,293.00 C671.00,292.53 673.31,288.29 676.13,283.58 L 681.25 275.00 L 719.79 275.00 C719.31,275.34 718.99,275.49 718.87,275.42 C718.36,275.11 718.07,275.32 718.23,275.88 C718.47,276.80 708.59,283.34 693.00,292.58 L 687.81 295.66 L 698.65 300.47 C704.62,303.12 712.09,306.58 715.25,308.16 C720.33,310.69 721.00,310.82 721.02,309.26 C721.02,308.19 721.22,307.93 721.64,308.48 C721.68,308.55 721.72,308.61 721.77,308.66 C721.78,308.68 721.79,308.69 721.80,308.71 C721.86,308.81 721.97,308.87 722.14,308.89 C723.38,309.25 726.85,307.65 737.35,302.26 C742.44,299.65 745.84,297.90 748.65,296.19 C752.23,294.36 754.56,293.23 754.63,293.30 C754.93,293.59 752.50,311.54 750.55,323.50 C748.66,335.04 748.23,339.00 748.84,339.00 C749.10,339.00 751.39,337.81 753.91,336.36 C756.44,334.91 763.54,330.60 769.71,326.78 C775.87,322.96 781.43,320.15 782.05,320.53 C782.75,320.96 783.06,320.65 782.85,319.71 C782.66,318.88 776.54,312.72 769.25,306.02 C765.40,302.49 761.93,299.20 759.50,296.82 C761.97,299.24 765.53,302.59 769.48,306.19 L 782.95 318.50 L 782.96 342.00 L 782.97 365.50 L 762.74 384.22 L 745.78 399.90 ZM 556.15 596.00 C550.04,602.11 540.55,598.46 540.55,590.00 C540.55,584.53 544.24,581.00 549.97,581.00 C553.02,581.00 554.35,581.62 556.35,584.00 L 558.87 587.00 L 667.59 587.00 L 675.41 579.00 L 807.54 579.00 L 826.46 560.00 L 851.20 560.00 L 854.00 557.00 C861.23,549.26 873.60,556.84 869.55,566.53 C867.51,571.42 862.87,573.39 858.09,571.39 C856.20,570.60 854.04,569.07 853.27,567.98 C852.03,566.21 850.72,566.00 840.67,566.00 L 829.46 566.00 L 810.54 585.00 L 678.41 585.00 L 670.59 593.00 L 559.15 593.00 ZM 750.30 247.82 C748.98,246.93 748.01,246.07 748.01,245.73 C748.00,245.31 754.96,239.46 763.48,232.73 L 778.96 220.50 L 761.73 220.00 L 744.50 219.50 L 742.81 203.70 C741.89,195.01 740.99,187.05 740.81,186.01 C740.62,184.86 736.75,191.02 730.87,201.81 L 721.24 219.50 L 721.74 220.00 L 695.87 220.00 C709.21,219.99 720.00,219.68 720.00,219.31 C720.00,218.53 715.91,213.53 701.11,196.25 L 690.63 184.00 L 741.63 184.00 L 779.93 218.50 L 780.00 267.04 C780.00,267.00 779.92,266.92 779.77,266.80 C779.86,266.66 779.90,266.58 779.88,266.56 C779.66,266.35 775.04,263.38 769.52,259.87 L 769.52 259.87 C764.79,256.81 759.24,253.29 754.54,250.42 C752.74,249.30 751.38,248.46 750.76,248.10 C750.60,248.01 750.45,247.92 750.30,247.82 ZM 651.75 568.46 C644.74,571.39 635.62,569.80 630.16,564.70 C622.40,557.45 622.82,544.54 631.04,537.62 C635.03,534.27 637.48,533.69 645.79,534.16 C650.89,534.45 653.37,535.12 655.89,536.92 C662.43,541.58 664.89,552.37 661.11,559.79 C658.77,564.37 656.50,566.48 651.75,568.46 ZM 632.25 378.34 C632.94,378.62 633.98,378.88 634.56,378.92 C635.15,378.96 643.17,371.38 652.38,362.06 C667.21,347.06 669.01,344.89 668.07,343.13 C667.48,342.03 667.00,339.41 667.00,337.30 L 667.00 333.46 L 655.56 327.77 L 644.13 322.08 L 641.53 326.73 L 638.92 331.39 L 641.07 336.38 C642.55,339.82 643.05,342.56 642.70,345.22 C642.07,349.91 637.69,355.91 633.84,357.37 L 631.00 358.44 L 631.00 368.14 C631.00,374.96 631.37,377.98 632.25,378.34 ZM 717.72 366.54 C717.88,366.59 718.09,366.64 718.32,366.70 C719.45,367.00 707.20,373.44 685.96,383.72 C658.41,397.06 651.59,400.00 650.80,398.88 C650.61,398.62 650.46,398.43 650.35,398.30 C650.73,396.62 651.01,393.96 651.01,391.68 L 651.03 386.50 L 670.15 367.15 L 695.56 366.83 ZM 714.04 567.75 C704.15,572.74 691.16,568.95 686.33,559.66 C683.23,553.70 684.93,543.01 689.65,538.87 C696.92,532.48 712.72,532.14 717.81,538.27 C718.73,539.38 718.47,540.15 716.59,541.92 C714.32,544.04 714.05,544.08 711.15,542.58 C704.98,539.38 696.54,541.32 694.19,546.47 C690.11,555.43 698.52,565.32 707.63,562.29 C710.23,561.43 710.53,560.86 710.80,556.17 L 711.10 551.00 L 719.09 551.00 L 718.50 565.50 ZM 803.50 568.14 C793.98,572.47 781.95,568.55 777.30,559.59 C775.15,555.47 775.92,544.93 778.64,541.26 C782.25,536.39 787.67,534.03 795.30,534.02 C802.01,534.00 806.42,535.39 808.81,538.27 C809.73,539.38 809.45,540.17 807.46,542.04 C805.02,544.33 804.86,544.35 802.07,542.70 C796.33,539.31 787.56,541.27 785.19,546.47 C782.24,552.95 785.71,559.94 792.96,562.11 C796.34,563.12 797.25,562.98 800.88,560.95 L 804.99 558.64 L 807.48 560.98 C810.49,563.81 809.63,565.35 803.50,568.14 ZM 605.00 562.00 L 605.00 569.00 L 578.00 569.00 L 578.00 534.00 L 587.00 534.00 L 587.00 562.00 ZM 639.38 561.56 C643.43,563.33 644.54,563.31 648.47,561.45 C653.13,559.24 655.63,553.45 654.04,548.61 C650.16,536.87 633.00,538.98 633.00,551.20 C633.00,556.34 635.06,559.68 639.38,561.56 ZM 613.71 315.84 L 621.50 327.95 L 626.65 327.97 C631.73,328.00 631.85,327.93 634.51,323.40 C635.99,320.87 636.82,318.46 636.35,318.05 C634.30,316.22 607.05,302.61 606.52,303.15 C606.20,303.47 609.43,309.19 613.71,315.84 ZM 752.00 534.00 L 752.00 569.00 L 744.00 569.00 L 744.00 534.00 ZM 649.63 401.43 C649.87,401.59 650.34,401.79 651.00,402.00 C651.89,402.28 661.02,402.55 673.96,402.71 C661.10,402.60 652.08,402.45 651.30,402.30 C650.29,402.11 649.77,401.90 649.63,401.43 ZM 650.23 398.79 C650.27,398.92 650.32,399.08 650.37,399.25 C650.70,400.25 650.41,401.04 649.72,401.10 C649.67,401.10 649.62,401.11 649.58,401.12 C649.58,400.72 649.75,400.16 650.05,399.37 C650.11,399.21 650.17,399.01 650.23,398.79 ZM 747.17 245.70 L 734.70 233.20 C736.30,234.79 737.83,236.31 739.23,237.67 L 739.23 237.67 ZM 776.16 271.21 L 768.15 279.59 C770.15,277.50 772.02,275.51 773.66,273.74 C774.57,272.82 775.41,271.97 776.16,271.21 ZM 730.77 264.43 C732.80,262.26 734.98,259.88 736.95,257.67 L 736.84 257.80 C736.08,258.65 735.28,259.55 734.43,260.51 C734.23,260.74 734.02,260.97 733.82,261.20 C734.00,261.00 734.18,260.80 734.36,260.59 C733.16,261.90 731.95,263.19 730.77,264.43 ZM 659.77 256.26 C666.69,252.52 666.86,251.96 667.28,248.54 C666.86,251.96 666.74,252.52 659.77,256.26 ZM 779.18 268.05 C779.70,267.48 779.99,267.13 780.00,267.05 L 780.00 267.19 ZM 756.00 293.08 L 756.00 293.08 C756.00,292.82 757.92,290.58 760.88,287.35 C757.95,290.56 756.03,292.79 756.00,293.08 Z" fill="rgb(19,179,193)"/>
<path d="M 0.00 378.00 L 0.00 0.00 L 693.50 0.00 L 1387.00 0.00 L 1387.00 378.00 L 1387.00 756.00 L 693.50 756.00 L 0.00 756.00 L 0.00 378.00 ZM 556.15 596.00 L 559.15 593.00 L 614.87 593.00 L 670.59 593.00 L 674.50 589.00 L 678.41 585.00 L 744.47 585.00 L 810.54 585.00 L 820.00 575.50 L 829.46 566.00 L 840.67 566.00 C850.72,566.00 852.03,566.21 853.27,567.98 C854.04,569.07 856.20,570.60 858.09,571.39 C862.87,573.39 867.51,571.42 869.55,566.53 C873.60,556.84 861.23,549.26 854.00,557.00 L 851.20 560.00 L 838.83 560.00 L 826.46 560.00 L 817.00 569.50 L 807.54 579.00 L 741.47 579.00 L 675.41 579.00 L 671.50 583.00 L 667.59 587.00 L 613.23 587.00 L 558.87 587.00 L 556.35 584.00 C554.35,581.62 553.02,581.00 549.97,581.00 C544.24,581.00 540.55,584.53 540.55,590.00 C540.55,598.46 550.04,602.11 556.15,596.00 ZM 651.75 568.46 C656.50,566.48 658.77,564.37 661.11,559.79 C664.89,552.37 662.43,541.58 655.89,536.92 C653.37,535.12 650.89,534.45 645.79,534.16 C637.48,533.69 635.03,534.27 631.04,537.62 C622.82,544.54 622.40,557.45 630.16,564.70 C635.62,569.80 644.74,571.39 651.75,568.46 ZM 714.04 567.75 L 718.50 565.50 L 718.79 558.25 L 719.09 551.00 L 715.10 551.00 L 711.10 551.00 L 710.80 556.17 C710.53,560.86 710.23,561.43 707.63,562.29 C698.52,565.32 690.11,555.43 694.19,546.47 C696.54,541.32 704.98,539.38 711.15,542.58 C714.05,544.08 714.32,544.04 716.59,541.92 C718.47,540.15 718.73,539.38 717.81,538.27 C712.72,532.14 696.92,532.48 689.65,538.87 C684.93,543.01 683.23,553.70 686.33,559.66 C691.16,568.95 704.15,572.74 714.04,567.75 ZM 803.50 568.14 C809.63,565.35 810.49,563.81 807.48,560.98 L 804.99 558.64 L 800.88 560.95 C797.25,562.98 796.34,563.12 792.96,562.11 C785.71,559.94 782.24,552.95 785.19,546.47 C787.56,541.27 796.33,539.31 802.07,542.70 C804.86,544.35 805.02,544.33 807.46,542.04 C809.45,540.17 809.73,539.38 808.81,538.27 C806.42,535.39 802.01,534.00 795.30,534.02 C787.67,534.03 782.25,536.39 778.64,541.26 C775.92,544.93 775.15,555.47 777.30,559.59 C781.95,568.55 793.98,572.47 803.50,568.14 ZM 605.00 565.50 L 605.00 562.00 L 596.00 562.00 L 587.00 562.00 L 587.00 548.00 L 587.00 534.00 L 582.50 534.00 L 578.00 534.00 L 578.00 551.50 L 578.00 569.00 L 591.50 569.00 L 605.00 569.00 L 605.00 565.50 ZM 752.00 551.50 L 752.00 534.00 L 748.00 534.00 L 744.00 534.00 L 744.00 551.50 L 744.00 569.00 L 748.00 569.00 L 752.00 569.00 L 752.00 551.50 ZM 860.04 514.12 C877.09,507.63 881.58,486.95 868.06,477.16 C864.40,474.51 858.64,472.54 842.74,468.49 C834.83,466.48 831.00,463.85 831.00,460.43 C831.00,455.72 837.61,452.02 846.04,452.01 C850.55,452.00 860.81,454.65 863.78,456.59 C865.03,457.41 866.44,457.85 866.90,457.56 C868.25,456.73 872.26,445.23 871.58,444.13 C871.24,443.58 868.38,442.14 865.23,440.92 C857.32,437.88 839.70,437.07 831.73,439.39 C820.45,442.67 813.00,451.36 813.00,461.24 C813.00,473.66 819.51,479.08 840.94,484.49 C853.00,487.54 854.42,488.18 856.64,491.58 C858.78,494.83 857.34,498.26 852.87,500.57 C850.38,501.86 847.78,502.13 841.39,501.80 C834.34,501.43 832.00,500.81 825.49,497.59 C821.29,495.52 817.62,494.04 817.35,494.32 C817.07,494.60 815.55,497.55 813.98,500.88 L 811.11 506.94 L 813.81 508.75 C825.74,516.78 846.69,519.21 860.04,514.12 ZM 562.00 514.94 C570.94,513.50 577.83,509.45 580.80,503.89 C584.20,497.55 583.65,487.86 579.61,482.55 C578.05,480.51 575.48,478.05 573.90,477.09 L 571.03 475.34 L 574.00 472.50 C582.09,464.75 581.48,451.24 572.75,444.65 C566.42,439.86 560.70,439.00 535.32,439.00 L 512.00 439.00 L 512.00 476.83 C512.00,497.64 512.30,514.97 512.67,515.33 C513.74,516.41 554.90,516.08 562.00,514.94 ZM 615.78 504.75 L 616.07 494.00 L 623.90 494.00 L 631.74 494.00 L 638.12 503.68 C641.63,509.00 645.09,513.95 645.82,514.68 C647.15,516.01 664.01,516.66 665.25,515.42 C665.57,515.10 662.07,509.34 657.48,502.62 L 649.14 490.39 L 653.82 486.95 C670.47,474.68 665.96,447.32 646.22,440.86 C643.91,440.10 633.87,439.50 619.75,439.25 L 597.00 438.86 L 597.00 476.77 C597.00,497.61 597.32,514.98 597.70,515.37 C598.09,515.76 602.25,515.94 606.95,515.79 L 615.50 515.50 L 615.78 504.75 ZM 713.76 484.75 L 714.03 454.00 L 726.01 454.00 L 738.00 454.00 L 738.00 446.50 L 738.00 439.00 L 704.46 439.00 L 670.91 439.00 L 671.21 446.25 L 671.50 453.50 L 683.25 453.78 L 695.00 454.06 L 695.22 478.28 C695.52,511.43 695.56,514.38 695.80,515.29 C695.91,515.72 699.94,515.95 704.75,515.79 L 713.50 515.50 L 713.76 484.75 ZM 805.00 508.52 L 805.00 501.04 L 786.25 500.77 L 767.50 500.50 L 767.24 469.75 L 766.97 439.00 L 757.99 439.00 L 749.00 439.00 L 749.00 476.83 C749.00,497.64 749.30,514.97 749.67,515.33 C750.03,515.70 762.63,516.00 777.67,516.00 L 805.00 516.00 L 805.00 508.52 ZM 633.73 407.04 C640.66,403.89 644.36,395.65 642.02,388.55 L 640.83 384.96 L 657.59 367.73 C668.08,356.94 674.93,350.63 675.92,350.86 C676.79,351.05 679.63,351.43 682.23,351.70 C688.36,352.34 693.06,349.57 695.93,343.65 C698.48,338.38 698.50,335.70 696.04,330.27 C693.71,325.14 688.97,322.01 683.50,321.99 C681.30,321.98 679.02,321.64 678.43,321.23 C677.84,320.83 674.30,315.33 670.55,309.00 C666.80,302.67 663.15,296.55 662.43,295.38 C661.25,293.46 661.94,291.85 669.62,278.67 C677.86,264.53 678.21,264.09 680.97,264.64 C685.16,265.48 690.49,263.35 693.90,259.46 C699.58,252.99 699.01,244.31 692.47,237.97 C689.32,234.91 688.27,234.50 683.69,234.50 C680.84,234.50 677.55,234.85 676.39,235.27 C674.59,235.93 671.90,233.55 657.63,218.62 C641.81,202.08 641.02,201.07 641.99,198.54 C644.42,192.12 641.51,183.50 635.71,179.96 C628.58,175.62 617.72,178.72 613.90,186.19 C610.01,193.82 612.47,201.74 620.33,206.92 L 624.00 209.34 L 624.00 218.55 L 624.00 227.76 L 620.94 229.03 C613.73,232.01 610.03,242.29 613.43,249.85 L 615.13 253.62 L 607.37 265.81 L 599.61 278.00 L 594.95 278.00 C589.79,278.00 585.13,280.55 581.59,285.32 C578.71,289.21 578.69,297.75 581.56,301.68 C584.52,305.74 591.69,309.22 596.00,308.70 C599.48,308.27 599.53,308.32 607.00,319.82 C611.12,326.17 614.66,331.76 614.85,332.22 C615.04,332.69 614.47,334.59 613.60,336.44 C609.86,344.31 613.18,353.43 621.26,357.44 C623.21,358.41 623.54,359.46 623.81,365.53 C624.24,375.42 623.48,378.66 620.52,379.41 C616.97,380.30 612.84,386.27 612.27,391.33 C611.92,394.44 612.35,396.76 613.82,399.64 C616.27,404.44 617.80,405.81 622.74,407.57 C627.72,409.35 628.75,409.30 633.73,407.04 ZM 762.74 384.22 L 782.97 365.50 L 782.96 342.00 L 782.95 318.50 L 769.48 306.19 C762.06,299.42 756.00,293.53 756.00,293.09 C756.00,292.66 761.40,286.65 768.00,279.75 L 780.00 267.19 L 779.96 242.85 L 779.93 218.50 L 760.78 201.25 L 741.63 184.00 L 695.28 184.00 C649.76,184.00 648.95,184.03 649.96,185.93 C650.53,187.00 651.00,190.55 651.00,193.84 L 651.00 199.80 L 660.60 209.90 L 670.20 220.00 L 695.87 220.00 L 721.53 220.00 L 734.35 232.85 L 747.17 245.70 L 742.24 251.62 C739.53,254.87 733.59,261.47 729.05,266.27 L 720.78 275.00 L 701.02 275.00 L 681.25 275.00 L 676.13 283.58 C673.31,288.29 671.00,292.53 671.00,293.00 C671.00,293.47 673.31,297.71 676.13,302.42 L 681.25 311.00 L 701.46 311.00 L 721.67 311.00 L 734.33 325.13 C741.30,332.90 747.00,339.54 747.00,339.89 C747.00,340.24 741.14,346.37 733.99,353.51 L 720.97 366.50 L 695.56 366.83 L 670.15 367.15 L 660.59 376.83 L 651.03 386.50 L 651.01 391.68 C651.01,394.54 650.57,398.00 650.05,399.37 C649.23,401.53 649.40,401.93 651.30,402.30 C652.51,402.54 673.53,402.77 698.00,402.83 L 742.50 402.93 L 762.74 384.22 ZM 639.38 561.56 C635.06,559.68 633.00,556.34 633.00,551.20 C633.00,538.98 650.16,536.87 654.04,548.61 C655.63,553.45 653.13,559.24 648.47,561.45 C644.54,563.31 643.43,563.33 639.38,561.56 ZM 530.75 501.42 C530.34,501.01 530.00,496.69 530.00,491.83 L 530.00 483.00 L 542.25 483.01 C557.77,483.01 561.55,483.99 563.73,488.57 C565.76,492.81 564.76,496.36 560.68,499.40 C558.21,501.23 556.19,501.54 544.68,501.84 C537.43,502.03 531.16,501.84 530.75,501.42 ZM 530.74 469.41 C530.34,469.00 530.00,465.14 530.00,460.83 L 530.00 453.00 L 542.87 453.00 C554.45,453.00 556.00,453.21 558.42,455.11 C560.67,456.88 561.05,457.88 560.80,461.26 C560.30,467.98 557.30,469.43 543.18,469.83 C536.75,470.01 531.15,469.82 530.74,469.41 ZM 616.00 466.50 L 616.00 454.00 L 626.60 454.00 C638.61,454.00 641.93,455.22 644.48,460.61 C646.38,464.61 646.39,467.12 644.54,471.56 C642.33,476.84 636.85,478.95 625.25,478.98 L 616.00 479.00 L 616.00 466.50 ZM 632.25 378.34 C631.37,377.98 631.00,374.96 631.00,368.14 L 631.00 358.44 L 633.84 357.37 C637.69,355.91 642.07,349.91 642.70,345.22 C643.05,342.56 642.55,339.82 641.07,336.38 L 638.92 331.39 L 641.53 326.73 L 644.13 322.08 L 655.56 327.77 L 667.00 333.46 L 667.00 337.30 C667.00,339.41 667.48,342.03 668.07,343.13 C669.01,344.89 667.21,347.06 652.38,362.06 C643.17,371.38 635.15,378.96 634.56,378.92 C633.98,378.88 632.94,378.62 632.25,378.34 ZM 613.71 315.84 C609.43,309.19 606.20,303.47 606.52,303.15 C607.05,302.61 634.30,316.22 636.35,318.05 C636.82,318.46 635.99,320.87 634.51,323.40 C631.85,327.93 631.73,328.00 626.65,327.97 L 621.50 327.95 L 613.71 315.84 ZM 658.75 320.87 C653.39,318.09 649.00,315.43 649.00,314.96 C649.00,313.61 656.02,302.00 656.83,302.00 C657.24,302.00 659.18,304.81 661.15,308.25 C670.33,324.28 671.18,326.00 669.85,325.97 C669.11,325.95 664.11,323.65 658.75,320.87 ZM 624.75 303.32 C604.75,292.94 604.74,293.20 625.59,282.56 C638.34,276.05 641.32,274.88 642.08,276.06 C642.60,276.85 645.09,281.00 647.62,285.28 L 652.22 293.06 L 647.18 301.78 C644.41,306.58 641.54,310.61 640.82,310.74 C640.09,310.87 632.86,307.53 624.75,303.32 ZM 652.29 278.02 L 648.12 271.09 L 657.60 266.10 C666.90,261.21 671.00,259.43 671.00,260.30 C671.00,260.89 658.01,283.30 657.14,284.22 C656.76,284.62 654.58,281.83 652.29,278.02 ZM 607.00 281.66 C607.00,280.92 610.18,275.40 614.06,269.41 L 621.12 258.50 L 626.47 258.50 C631.70,258.50 631.87,258.59 634.41,262.79 C635.83,265.15 637.00,267.29 637.00,267.53 C637.00,267.78 630.25,271.37 622.00,275.50 C612.45,280.28 607.00,282.52 607.00,281.66 ZM 641.48 259.38 L 638.77 254.75 L 640.88 250.52 C643.48,245.32 643.53,241.76 641.06,236.33 C639.79,233.52 637.84,231.40 635.09,229.83 L 631.02 227.50 L 631.01 218.29 C631.00,209.77 631.17,208.98 633.23,207.88 C635.32,206.76 636.56,207.82 652.22,224.09 C663.52,235.84 668.78,241.99 668.37,243.00 C668.05,243.82 667.56,246.31 667.29,248.52 C666.80,252.49 666.66,252.61 656.01,258.27 C650.08,261.42 644.99,264.00 644.71,264.00 C644.42,264.00 642.97,261.92 641.48,259.38 Z" fill="rgb(235,235,235)"/>
</g>
</svg>